<?xml version="1.0" encoding="UTF-8" standalone="no"?>
<!-- Created with Inkscape (http://www.inkscape.org/) -->

<svg
   xmlns:dc="http://purl.org/dc/elements/1.1/"
   xmlns:cc="http://creativecommons.org/ns#"
   xmlns:rdf="http://www.w3.org/1999/02/22-rdf-syntax-ns#"
   xmlns:svg="http://www.w3.org/2000/svg"
   xmlns="http://www.w3.org/2000/svg"
   xmlns:sodipodi="http://sodipodi.sourceforge.net/DTD/sodipodi-0.dtd"
   xmlns:inkscape="http://www.inkscape.org/namespaces/inkscape"
   version="1.1"
   id="svg869"
   width="437"
   height="247"
   viewBox="0 0 437 247"
   sodipodi:docname="Persona_5_logo.svg"
   inkscape:version="0.92.2 2405546, 2018-03-11">
  <metadata
     id="metadata875">
    <rdf:RDF>
      <cc:Work
         rdf:about="">
        <dc:format>image/svg+xml</dc:format>
        <dc:type
           rdf:resource="http://purl.org/dc/dcmitype/StillImage" />
        <dc:title></dc:title>
      </cc:Work>
    </rdf:RDF>
  </metadata>
  <defs
     id="defs873" />
  <sodipodi:namedview
     pagecolor="#ffffff"
     bordercolor="#666666"
     borderopacity="1"
     objecttolerance="10"
     gridtolerance="10"
     guidetolerance="10"
     inkscape:pageopacity="0"
     inkscape:pageshadow="2"
     inkscape:window-width="1920"
     inkscape:window-height="1020"
     id="namedview871"
     showgrid="false"
     inkscape:zoom="1.6639676"
     inkscape:cx="273.68972"
     inkscape:cy="115.60496"
     inkscape:window-x="0"
     inkscape:window-y="0"
     inkscape:window-maximized="1"
     inkscape:current-layer="svg869" />
  <path
     style="fill:#000000"
     d="m 228.4582,247.51256 c -1.20554,-0.26733 -3.52352,-1.84807 -5.15107,-3.51276 l -2.95918,-3.02672 -0.67838,3.08866 -0.67838,3.08865 h -7.92055 -7.92054 v -3 c 0,-2.82956 -0.22555,-3 -3.97006,-3 -3.25163,0 -4.37144,0.54289 -6.18806,3 l -2.218,3 h -13.33499 -13.335 l 1.65852,-2.53121 c 2.40807,-3.67518 1.00532,-4.14505 -1.57141,-0.52637 l -2.17719,3.05758 h -11.4319 c -6.28755,0 -11.43191,-0.24083 -11.43191,-0.53518 0,-0.29435 0.72675,-1.64435 1.61501,-3 l 1.61501,-2.46482 h -6.11501 c -3.36326,0 -6.11501,-0.29502 -6.11501,-0.65561 0,-0.36058 1.125,-2.13056 2.5,-3.93328 1.375,-1.80272 2.5,-3.55857 2.5,-3.90189 0,-0.34332 -1.9125,-0.48584 -4.25,-0.31672 -4.04765,0.29286 -4.48486,0.65269 -9.18263,7.5575 l -4.93264,7.25 h -7.87407 -7.87407 l 1.55671,-2.22251 c 2.3813,-3.39979 1.98702,-3.77749 -3.943305,-3.77749 -3.025,0 -5.481695,-0.3375 -5.459323,-0.75 0.02237,-0.4125 6.474273,-9.975 14.337558,-21.25 l 14.29688,-20.5 -3.81898,-0.56476 c -4.4574,-0.65917 -4.90973,-0.99668 -5.12257,-3.82221 -0.38513,-5.11274 -4.03862,-0.84744 -20.233565,23.62182 -9.35,14.12711 -17.7875,26.49104 -18.75,27.4754 -1.608065,1.64459 -4.299367,1.78975 -33.182612,1.78975 -30.507264,0 -31.4512155,-0.0586 -32.0645473,-1.99105 -0.3475644,-1.09508 -0.3513312,-2.44508 -0.00837,-3 0.3840442,-0.6214 -1.1017319,-1.00895 -3.8680655,-1.00895 -3.5323527,0 -4.6202388,-0.40521 -5.09381857,-1.89733 -0.4407365,-1.38864 14.31304237,-24.37904 55.02890737,-85.75 30.597103,-46.11897 56.578891,-84.878663 57.737291,-86.132658 l 2.1062,-2.279989 41.52627,0.09371 c 28.5326,0.06439 41.63722,-0.23913 41.88084,-0.97001 0.21162,-0.634843 -1.27758,-1.063721 -3.69357,-1.063721 -8.1872,0 -7.79972,-0.975629 12.54373,-31.583599 10.20497,-15.354021 19.26674,-28.4789019 20.13725,-29.1664019 1.23732,-0.9771847 19.6483,-1.25 84.35645,-1.25 77.82253,0 82.82752,0.1046771 83.67374,1.75 0.49503,0.9625 0.70745,2.2852377 0.47204,2.939417 -0.27872,0.7745528 1.0764,1.2977472 3.88513,1.5 6.80932,0.4903296 6.31502,2.6168369 -4.29932,18.4957669 -5.07902,7.598149 -9.94399,14.363005 -10.81106,15.033014 -1.1885,0.918393 -13.75865,1.230253 -51.07648,1.267185 l -49.5,0.04899 10.18862,3.437433 c 5.60373,1.890588 13.02414,4.868803 16.48978,6.618255 8.24017,4.159622 23.30617,14.210473 28.16386,18.788716 9.10602,8.582159 13.65774,18.804382 13.65774,30.672442 0,17.49803 -9.51788,33.28456 -29.27255,48.55198 -25.89337,20.01171 -64.30366,34.93256 -110.84994,43.06074 l -13.37751,2.33606 13.34011,0.5 c 13.03955,0.48874 13.39332,0.56196 15.70203,3.25 2.97146,3.45969 4.56356,3.4318 11.73553,-0.20554 9.72325,-4.93125 19.62543,-5.23006 24.1316,-0.72819 4.70668,4.7022 6.58364,4.81819 14.48673,0.89527 6.26205,-3.10835 8.22489,-3.5993 14.5982,-3.65138 6.59304,-0.0539 7.65853,0.21283 10.18459,2.54928 1.55167,1.43519 4.25591,3.29933 6.00944,4.14254 l 3.18823,1.5331 2.57596,-3.89254 c 2.55343,-3.8585 2.63268,-3.89254 9.06177,-3.89254 h 6.48581 v 3 c 0,2.72439 0.30173,3 3.28439,3 2.58885,0 3.65969,-0.63532 5.05654,-3 1.71657,-2.90592 2.00557,-3 9.21561,-3 4.0939,0 7.44346,0.24083 7.44346,0.53518 0,0.29435 -0.72675,1.64435 -1.61501,3 l -1.61501,2.46482 h 4.92792 c 4.17009,0 5.36992,-0.46135 7.8021,-3 2.61076,-2.72504 3.46423,-3 9.31209,-3 h 6.43791 l -0.6,3 -0.6,3 h 5.02031 5.02032 l -0.69848,3.75 -0.69848,3.75 5.84277,-6.75 5.84277,-6.75 h 13.9254 13.92541 l -1.61501,2.46482 c -0.88826,1.35565 -1.61501,2.70565 -1.61501,3 0,0.29435 2.73338,0.53518 6.07418,0.53518 h 6.07417 l -4.35353,6.25 c -4.30002,6.17318 -4.41707,6.25369 -9.52367,6.55051 -5.12548,0.29791 -5.1533,0.31734 -3.22064,2.25 4.17843,4.17843 1.08823,12.69088 -7.58477,20.89344 -7.14937,6.76158 -13.15472,9.44051 -21.30846,9.5055 -5.75007,0.0458 -6.54781,-0.20641 -8.53757,-2.69945 -2.7241,-3.41313 -4.21783,-3.48736 -5.03035,-0.25 -0.60352,2.40461 -0.93104,2.5 -8.58366,2.5 h -7.9562 l 0.97525,-2.5651 c 0.53639,-1.4108 0.97525,-2.7608 0.97525,-3 0,-0.23919 -2.23434,-0.4349 -4.9652,-0.4349 -4.09094,0 -5.56684,0.52824 -8.38202,3 -3.39439,2.98031 -3.49633,3 -15.5348,3 H 321.1501 v -3 c 0,-2.72946 -0.29867,-3 -3.31194,-3 -2.52038,0 -3.84205,0.71701 -5.52994,3 -2.12274,2.87116 -2.54124,3 -9.74476,3 h -7.52677 l 1.55671,-2.22251 c 0.85618,-1.22237 1.5567,-2.57237 1.5567,-3 0,-1.56668 -3.97385,-0.70493 -10.092,2.1885 -10.93607,5.17194 -19.29598,5.22287 -25.17938,0.1534 -4.76753,-4.10797 -6.34137,-4.38008 -10.5219,-1.81919 -2.0387,1.24885 -5.01759,2.84099 -6.61977,3.53807 -3.15935,1.37459 -13.74281,2.30799 -17.27885,1.5239 z m 8.98098,-10.16585 c 5.55248,-2.45612 13.04805,-9.1818 14.71329,-13.20203 2.15561,-5.20412 0.71109,-7.62671 -6.0085,-10.0768 -3.29663,-1.20201 -5.99387,-2.7898 -5.99387,-3.52843 0,-2.19086 4.58995,-4.5521 8.17923,-4.2077 2.7701,0.2658 3.28127,0.69175 3.08256,2.56864 -0.21499,2.03068 0.19375,2.25 4.1933,2.25 5.148,0 7.54491,-2.41443 7.54491,-7.60006 0,-4.52247 -2.25487,-5.91552 -9.40393,-5.80972 -8.41721,0.12458 -15.46246,3.35508 -21.17607,9.70998 -3.84534,4.27695 -4.4762,5.56454 -4.22056,8.61419 0.28549,3.40586 0.60135,3.69197 6.30056,5.70721 3.3,1.16689 6.13569,2.80348 6.30154,3.63688 0.53944,2.71077 -4.73607,5.87097 -9.24733,5.53945 -3.69524,-0.27155 -4.05072,-0.54142 -4.01479,-3.04793 0.0376,-2.62067 -0.18462,-2.75 -4.72432,-2.75 -4.26381,0 -4.92385,0.30962 -6.28942,2.95034 -2.74791,5.31386 -1.51321,9.36547 3.47432,11.40082 2.75357,1.12369 12.67204,-0.1125 17.28908,-2.15484 z m 41.51035,-1.33923 c 8.52883,-4.07043 18.31682,-13.80953 22.26373,-22.15252 3.56586,-7.53754 3.65206,-9.76308 0.51897,-13.39881 -2.20331,-2.55677 -2.98929,-2.79788 -8.85687,-2.717 -4.99001,0.0688 -7.93582,0.78922 -13.09065,3.20145 -14.47511,6.77372 -28.71493,25.60792 -25.58512,33.83997 2.30881,6.07263 13.44042,6.62445 24.74994,1.22691 z m -12.15567,-5.35619 c -0.90407,-0.90407 -1.64376,-2.03232 -1.64376,-2.50723 0,-4.05945 7.46623,-14.65876 13.05288,-18.53031 7.11153,-4.9283 13.94712,-5.11863 13.94712,-0.38834 0,5.24567 -9.13101,17.34063 -15.2897,20.25276 -5.60121,2.64853 -8.27906,2.9606 -10.06654,1.17312 z m 12.63313,-5.57761 c 3.36639,-2.77486 9.72311,-10.87424 9.72311,-12.38865 0,-2.50244 -11.10846,7.84063 -13.60419,12.66684 -1.87205,3.62014 -0.75077,3.53977 3.88108,-0.27819 z m 112.90472,12.02855 c 8.15974,-4.07873 17.81839,-15.3107 17.81839,-20.72087 0,-3.1619 -2.32768,-5.20035 -6.248,-5.47162 -2.06139,-0.14264 -3.74889,-0.50685 -3.75,-0.80935 -0.007,-1.968 3.20416,-2.95 9.64711,-2.95 7.04529,0 7.32083,-0.094 9.8,-3.34439 4.1023,-5.37839 3.69982,-5.65588 -8.19911,-5.65304 l -10.75,0.003 -7.11044,8.24743 c -3.91075,4.53609 -8.37714,9.75615 -9.92532,11.60014 l -2.81488,3.35272 5.42532,-0.52498 c 2.98393,-0.28873 6.88782,-0.83603 8.67532,-1.21621 2.9201,-0.62107 3.25,-0.4593 3.25,1.59368 0,2.86839 -8.21496,10.94165 -11.13414,10.94165 -1.69972,0 -2.0081,-0.47557 -1.62111,-2.5 0.45731,-2.39224 0.26617,-2.5 -4.43445,-2.5 -4.68812,0 -4.98051,0.16311 -6.40542,3.5734 -2.76324,6.61339 0.32192,9.76857 8.77673,8.97593 2.57488,-0.24139 6.62488,-1.41027 9,-2.59749 z m -328.975236,0.79816 c 0.873751,-0.6875 14.492042,-20.825 30.262869,-44.75 15.770827,-23.925 29.402957,-44.0625 30.293627,-44.75 1.00502,-0.77577 4.86648,-1.2513 10.17826,-1.25342 19.21909,-0.008 52.13474,-4.4726 73.40752,-9.95755 31.45818,-8.11116 52.07954,-20.77434 55.69504,-34.20127 3.51386,-13.049499 -7.60936,-24.227901 -29.74059,-29.888116 -17.56542,-4.492479 -29.22456,-5.327025 -75.3031,-5.390098 l -43.5,-0.05954 -56.638193,85.000004 c -31.151003,46.75 -56.4369445,85.3375 -56.190982,85.75 0.2459624,0.4125 13.834638,0.75 30.197057,0.75 22.285943,0 30.148426,-0.31361 31.338492,-1.25 z M 145.1501,116.23497 c 0,-1.17563 15.56194,-24.864361 18.28549,-27.834578 1.77604,-1.936904 3.07246,-2.25 9.31646,-2.25 3.98933,0 10.77339,0.482982 15.07569,1.073293 11.3968,1.563736 16.29837,4.901821 14.96991,10.194858 -2.22031,8.846407 -15.65593,15.605597 -37.14755,18.688197 -8.80477,1.2629 -20.5,1.33605 -20.5,0.12823 z m 28.68004,-3.65352 c 9.27852,-1.91653 16.7501,-4.77512 21.07101,-8.06166 3.6399,-2.76855 6.75172,-7.940632 5.31266,-8.830024 -0.51093,-0.31577 -6.47178,-0.833154 -13.24633,-1.149743 l -12.31738,-0.575615 -6,9.231502 c -3.3,5.07733 -6.15,9.61918 -6.33333,10.093 -0.49109,1.2692 2.97481,1.05623 11.51337,-0.70746 z m -62.16361,119.09865 4.98357,-7.47029 6.07186,-0.0297 c 8.03064,-0.0393 14.32407,-2.30572 19.80899,-7.13375 5.64533,-4.96921 8.61915,-9.72668 8.61915,-13.78874 0,-4.28985 -2.54439,-5.1098 -15.8151,-5.09655 l -10.6849,0.0107 -13.75,19.90799 c -7.5625,10.94935 -13.750005,20.16955 -13.750005,20.48929 0,0.31974 2.14489,0.58134 4.766435,0.58134 h 4.76642 z m 11.48357,-16.11623 c 0,-0.32259 1.42628,-2.57259 3.16952,-5 2.89733,-4.03446 3.53634,-4.41348 7.44098,-4.41348 2.34931,0 4.5761,0.49291 4.94843,1.09535 1.1049,1.78777 -1.60925,5.70064 -5.10482,7.3594 -3.14042,1.49023 -10.45411,2.16095 -10.45411,0.95873 z m 44.75,20.08817 c 1.2375,-1.91048 2.25,-3.70491 2.25,-3.98763 0,-0.28271 -4.5,-0.51402 -10,-0.51402 -5.5,0 -10,-0.31331 -10,-0.69625 0,-0.38294 1.1862,-2.40794 2.636,-4.5 l 2.636,-3.80375 h 9.82795 9.82795 l 2.55121,-3.75 2.55121,-3.75 -9.50546,-0.2861 -9.50546,-0.28609 2.62318,-3.96391 2.62319,-3.9639 10.61712,-0.0124 10.61711,-0.0124 2.25,-3.47359 c 1.2375,-1.91048 2.25,-3.70491 2.25,-3.98763 0,-0.28271 -6.8625,-0.49701 -15.25,-0.47622 l -15.25,0.0378 -13.5,19.59885 c -7.425,10.77936 -13.65,19.98735 -13.83333,20.46219 -0.18334,0.47484 6.79166,0.85778 15.5,0.85097 l 15.83333,-0.0124 2.25,-3.47359 z m 18.31204,-4.50165 c 4.65288,-6.89176 5.79927,-8 8.27541,-8 h 2.87432 l -0.36518,8.04147 -0.36518,8.04147 6.00929,-0.29147 6.0093,-0.29147 0.28696,-8.61479 0.28696,-8.6148 4.03684,-1.82036 c 5.01623,-2.262 12.50871,-10.44103 13.43722,-14.66848 0.56462,-2.57072 0.27558,-3.50602 -1.53708,-4.97383 -1.88398,-1.52555 -4.1274,-1.80367 -14.37168,-1.78166 l -12.13922,0.0261 -13.5,19.56229 c -7.425,10.75926 -13.65,19.97252 -13.83333,20.47392 -0.18334,0.5014 1.87788,0.91163 4.58047,0.91163 h 4.91381 z m 14.55666,-21 c 2.53578,-3.83183 2.87024,-4 7.95517,-4 5.85832,0 7.11322,0.92693 5.2639,3.88816 -1.75845,2.81573 -5.19398,4.11184 -10.89901,4.11184 h -4.96714 z m 106.58038,18.58038 c 3.74375,-5.45579 7.08392,-10.18079 7.42259,-10.5 0.33867,-0.31921 0.29404,4.25712 -0.0992,10.16962 l -0.71495,10.75 4.84623,-0.0107 4.84623,-0.0107 13.75,-19.90799 c 7.5625,-10.94939 13.75,-20.16959 13.75,-20.48933 0,-0.31974 -2.1375,-0.56776 -4.75,-0.55117 l -4.75,0.0302 -6.48756,9.55763 c -3.56816,5.25669 -6.89992,9.81248 -7.40391,10.12396 -0.54586,0.33736 -0.69013,-3.53901 -0.35682,-9.5878 l 0.55954,-10.1541 h -4.72696 -4.72696 l -8.08893,11.75 c -4.44892,6.4625 -10.8472,15.71164 -14.21842,20.55364 l -6.12949,8.80364 5.23589,-0.30364 5.23589,-0.30364 z m 34.53779,4.91962 c 5.67422,-5.13488 6.41221,-5.5 11.11655,-5.5 h 5.03886 l -1.89228,5.5 -1.89228,5.5 5.69614,-0.0114 5.69614,-0.0114 6.06125,-20.23855 6.06126,-20.23855 -4.38255,-0.3077 c -4.25783,-0.29895 -4.64376,-0.0657 -13.56125,8.1958 -5.04829,4.67683 -14.80371,13.90522 -21.67871,20.50743 l -12.5,12.00403 5.07959,0.0502 c 4.78153,0.0472 5.43621,-0.27255 11.15728,-5.44983 z m 16.75314,-16.48957 c 3.26992,-3.41307 3.88082,-3.33613 2.95025,0.37157 -0.49627,1.97729 -1.28816,2.618 -3.23576,2.618 h -2.57868 z M 179.19434,188.61505 c 76.25166,-8.38834 139.68247,-37.87355 157.10184,-73.0273 4.31019,-8.69833 4.35392,-8.89279 4.35392,-19.361967 0,-9.646756 -0.25622,-11.102257 -2.91787,-16.575391 -4.30081,-8.843733 -13.98332,-17.955287 -25.28116,-23.790393 -9.73228,-5.026529 -28.69201,-11.74838 -39.05097,-13.844863 -6.55642,-1.326911 -7.54646,-2.573082 -4.85795,-6.114744 1.2349,-1.626777 4.95111,-1.75 52.77706,-1.75 39.65338,0 51.80923,-0.286578 53.02149,-1.25 2.03655,-1.618512 17.94396,-25.5485427 18.56695,-27.9308656 0.45707,-1.7478626 -2.71877,-1.8191353 -81.05913,-1.8191353 -44.84417,0 -82.19644,0.2538762 -83.00505,0.5641694 -2.00554,0.7695978 -38.04885,55.0516285 -37.32838,56.2173735 0.31612,0.511496 5.59481,1.247646 11.73041,1.635888 22.41774,1.418527 43.74335,5.9938 56.55085,12.132625 12.66119,6.068693 19.53113,16.446769 17.79011,26.874633 -4.87059,29.17257 -54.37096,48.21243 -138.12676,53.1292 -8.58,0.50367 -11.51217,1.04055 -12.56979,2.30151 -4.44546,5.30016 -20.89009,32.39432 -20.12556,33.15885 2.29618,2.29618 49.84077,1.93542 72.42999,-0.54959 z m 95.73903,-95.964658 c -0.9485,-4.466423 -3.19332,-7.970393 -6.86011,-10.708046 -2.61442,-1.95195 -14.11803,-6.107451 -19.92316,-7.196935 l -3.5,-0.656866 3.16077,1.44513 c 1.73842,0.794821 7.23084,4.181842 12.20538,7.526713 8.99162,6.045958 13.98425,11.895968 14.23353,16.677862 0.0753,1.44428 0.27504,1.30044 0.81636,-0.587858 0.39418,-1.375 0.33443,-4.3 -0.13277,-6.5 z"
     id="path879"
     inkscape:connector-curvature="0" />
  <path
     style="fill:#ffffff;stroke:#666666;stroke-width:0.84990448;stroke-opacity:1"
     d="m 5.395591,238.21422 c -1.2854805,-0.19474 -2.3372373,-0.55058 -2.3372373,-0.79075 0,-0.88982 18.3914083,-28.91686 64.4639563,-98.23795 l 47.29849,-71.165652 34.84608,0.0024 c 50.66167,0.0035 68.35467,1.240392 85.4154,5.97151 27.39793,7.597729 36.01029,24.777694 20.13455,40.164452 -17.32468,16.79105 -60.52968,29.10479 -112.77414,32.14143 -10.62947,0.61783 -17.22464,1.36387 -18.38977,2.08025 -0.99915,0.61432 -15.10281,20.97468 -31.341464,45.24522 l -29.524825,44.12828 -5.116629,0.53479 c -5.494993,0.57434 -48.7961975,0.51355 -52.674411,-0.0739 z M 174.73906,114.85354 c 15.07943,-3.47491 23.59863,-8.1009 27.15966,-14.7479 1.77028,-3.304383 1.93759,-4.225431 1.10108,-6.061358 -2.22179,-4.876295 -9.5821,-7.139355 -25.71102,-7.905317 -10.22041,-0.485368 -10.71793,-0.42951 -13.10247,1.471073 -2.80468,2.235447 -19.1939,26.697512 -19.1939,28.648242 0,1.08745 1.61409,1.19706 11.26123,0.7647 6.2877,-0.28179 14.4518,-1.23993 18.48542,-2.16944 z"
     id="path900"
     inkscape:connector-curvature="0" />
  <path
     style="fill:#ffffff;stroke:#666666;stroke-width:0.84990448;stroke-opacity:1"
     d="m 111.63365,189.81903 c -2.45034,-0.23287 -4.03704,-0.79979 -4.03704,-1.44242 0,-1.16316 14.19199,-24.81913 17.53051,-29.22078 1.14751,-1.51292 2.74014,-3.09734 3.53917,-3.52091 0.79903,-0.42359 9.48438,-1.40456 19.30078,-2.17995 72.74423,-5.74601 116.08031,-21.01954 127.34474,-44.88186 4.85598,-10.286783 3.59696,-18.512236 -4.10725,-26.833711 -9.71384,-10.492107 -30.45246,-17.033471 -64.08703,-20.214297 -7.75804,-0.733678 -14.27997,-1.506114 -14.4932,-1.716525 -0.21322,-0.210411 0.36047,-1.796636 1.27486,-3.524944 1.78786,-3.379257 30.64855,-46.8098628 33.4485,-50.3345008 l 1.6879,-2.1247613 h 81.14348 c 44.62892,0 81.39769,0.2540867 81.70838,0.5646371 0.31069,0.3105505 0.0925,1.4579215 -0.48487,2.5497135 -2.12741,4.0229395 -15.45919,23.5960445 -17.05653,25.0416135 -1.52594,1.380957 -5.31761,1.515123 -50.27187,1.778848 -26.74178,0.15688 -50.19025,0.48051 -52.10768,0.719175 -2.62329,0.326523 -3.77465,0.97281 -4.65133,2.610924 -1.03621,1.936156 -0.99076,2.304471 0.41086,3.32936 0.86679,0.633805 3.7248,1.59757 6.35115,2.141701 8.85959,1.835538 25.10753,7.663382 35.69359,12.802638 9.46347,4.594272 11.26536,5.848433 17.93108,12.480448 5.11316,5.087313 8.17198,8.953743 9.86715,12.472347 2.30371,4.781704 2.4574,5.76135 2.46664,15.723233 0.01,10.242231 -0.0898,10.834231 -2.76474,16.482591 -8.60509,18.17035 -26.63916,33.93347 -54.16901,47.34774 -30.60524,14.91279 -68.39062,24.91779 -108.78778,28.80537 -9.9083,0.95351 -55.86054,1.79244 -62.68046,1.14432 z"
     id="path902"
     inkscape:connector-curvature="0" />
  <path
     style="fill:#ffffff;stroke:#666666;stroke-width:0.42495224;stroke-opacity:1"
     d="m 98.608867,238.77803 c -0.525878,-0.10128 -0.956142,-0.33523 -0.956142,-0.51986 0,-0.33791 11.898815,-17.91047 21.745215,-32.11403 l 5.30264,-7.64914 10.37964,0.0338 c 14.08048,0.0458 15.69558,0.5564 15.68738,4.95943 -0.005,2.71152 -1.24939,5.49035 -3.99075,8.91202 -5.44894,6.80118 -14.07235,11.35344 -21.54435,11.37316 -1.30865,0.003 -3.86161,0.13158 -5.67324,0.28472 l -3.29389,0.27844 -4.91166,7.3707 -4.91167,7.37071 -3.43852,-0.0579 c -1.89118,-0.0318 -3.868774,-0.14075 -4.394653,-0.24204 z m 32.141003,-23.11831 c 2.68648,-0.60575 4.81941,-1.80431 6.38588,-3.58842 1.60816,-1.8316 2.28187,-3.39364 1.93501,-4.48648 -0.57865,-1.82316 -7.60211,-2.19989 -9.87104,-0.52948 -1.46957,1.08192 -6.03089,7.34964 -6.04173,8.30195 -0.0133,1.16816 3.18705,1.29565 7.59188,0.30243 z"
     id="path904"
     inkscape:connector-curvature="0" />
  <path
     style="fill:#ffffff;stroke:#666666;stroke-width:0.42495224;stroke-opacity:1"
     d="m 140.14795,238.77863 c -6.36509,-0.22258 -6.42991,0.70833 0.68275,-9.80601 3.43412,-5.07651 9.57576,-14.05853 13.64811,-19.96006 l 7.40427,-10.73004 12.18609,0.0528 c 6.70235,0.029 13.47428,0.17246 15.04873,0.31872 l 2.86263,0.26593 -2.22281,3.50586 -2.22282,3.50585 -10.62619,0.007 -10.6262,0.007 -2.54971,3.87676 c -1.40234,2.13222 -2.61346,4.04151 -2.69136,4.24286 -0.0779,0.20135 2.40806,0.38634 5.52437,0.41108 3.11632,0.0248 7.34105,0.16817 9.38828,0.31872 l 3.72225,0.27371 -2.42304,3.50586 -2.42304,3.50586 h -9.84834 -9.84834 l -2.67348,4.05442 c -1.9371,2.9377 -2.54529,4.18261 -2.2081,4.5198 0.29415,0.29415 3.79772,0.54149 9.5228,0.67226 4.98158,0.11379 9.28998,0.33079 9.57421,0.48222 0.35771,0.19058 -0.16481,1.35182 -1.69742,3.77236 l -2.21421,3.49703 -10.83867,-0.0865 c -5.96126,-0.0476 -12.46411,-0.14334 -14.45076,-0.21281 z"
     id="path906"
     inkscape:connector-curvature="0" />
  <path
     style="fill:#ffffff;stroke:#666666;stroke-width:0.42495224;stroke-opacity:1"
     d="m 172.76303,238.77356 c -0.64274,-0.0974 -1.16765,-0.30775 -1.16647,-0.46752 0.003,-0.35174 3.71796,-5.84484 17.11503,-25.30425 l 10.1995,-14.81492 11.52008,0.18314 c 12.59443,0.20021 13.68563,0.39199 15.5233,2.72821 2.00075,2.54353 -0.0365,6.96856 -5.95817,12.94152 -2.92513,2.95047 -4.37577,4.04369 -7.26635,5.47603 l -3.61159,1.78962 -0.27655,5.76632 c -0.1521,3.17148 -0.27655,7.07469 -0.27655,8.6738 v 2.90747 h -3.33728 c -1.8355,0 -4.52347,0.12399 -5.97325,0.27552 -2.61456,0.27327 -2.63424,0.26723 -2.42389,-0.74367 0.11664,-0.56055 0.33284,-4.24627 0.48045,-8.19049 l 0.26837,-7.17131 -2.58917,0.18729 c -2.28936,0.16559 -2.77278,0.36753 -4.17486,1.74394 -0.87213,0.85617 -3.49798,4.422 -5.83522,7.92407 l -4.24952,6.36739 -3.39962,-0.0476 c -1.86979,-0.0262 -3.92549,-0.12723 -4.56824,-0.2246 z m 36.84261,-25.26987 c 2.06114,-0.66601 4.74013,-3.13931 5.14419,-4.74925 0.54676,-2.17843 -0.43645,-2.6103 -5.94265,-2.6103 -4.22797,0 -4.9448,0.1055 -5.77483,0.8499 -0.98034,0.87921 -5.09089,6.74725 -5.09089,7.26753 0,0.47415 9.82744,-0.16439 11.66418,-0.75788 z"
     id="path908"
     inkscape:connector-curvature="0" />
  <path
     style="fill:#ffffff;stroke:#666666;stroke-width:0.42495224;stroke-opacity:1"
     d="m 221.52631,239.49222 c -0.9349,-0.1366 -2.10945,-0.47261 -2.61012,-0.74669 -1.4627,-0.80074 -3.07093,-2.97498 -3.36671,-4.55164 -0.3647,-1.94402 0.8881,-5.85883 2.38914,-7.4657 1.12581,-1.20518 1.30167,-1.24873 5.04356,-1.24873 3.77076,0 3.88843,0.0299 4.2915,1.09005 0.22794,0.59952 0.41443,1.64455 0.41443,2.32229 0,1.65016 0.99687,2.11297 4.5403,2.10789 4.6099,-0.007 8.56189,-2.22012 8.75863,-4.90573 0.11313,-1.54427 -1.42702,-2.61463 -6.70462,-4.65953 -2.18026,-0.84479 -4.30139,-1.90866 -4.71361,-2.36415 -0.44878,-0.4959 -0.82642,-1.75592 -0.94124,-3.14053 -0.24192,-2.91715 0.90119,-5.02745 4.95208,-9.14206 5.07547,-5.1553 10.19063,-7.69826 17.28825,-8.5947 5.1204,-0.64672 9.14396,-0.0763 10.74345,1.52323 2.39631,2.39631 1.36733,8.70413 -1.67666,10.27824 -1.77923,0.92007 -6.29541,1.30952 -7.52911,0.64927 -0.6618,-0.35419 -0.92014,-0.89123 -0.92014,-1.9128 0,-1.93382 -0.87152,-2.51773 -3.74098,-2.50643 -2.62517,0.0103 -5.24884,0.92144 -6.77079,2.35123 -2.05749,1.93292 -0.99215,3.13503 5.00827,5.65125 2.1544,0.90344 4.56088,2.24977 5.34772,2.99187 1.20601,1.13741 1.42917,1.64162 1.4213,3.21136 -0.0148,2.94898 -1.37233,5.27423 -5.41774,9.27969 -3.98736,3.94797 -7.53034,6.49493 -10.72176,7.70757 -4.04229,1.53595 -11.63019,2.57956 -15.08515,2.07475 z"
     id="path910"
     inkscape:connector-curvature="0" />
  <path
     style="fill:#ffffff;stroke:#666666;stroke-width:0.42495224;stroke-opacity:1"
     d="m 259.23983,238.7335 c -4.08412,-1.46474 -5.42475,-3.46302 -5.09332,-7.59186 0.69338,-8.63813 12.41407,-22.823 24.11092,-29.18005 1.51921,-0.82567 4.29202,-2.02336 6.16181,-2.66154 2.96474,-1.01189 4.08839,-1.16478 8.78408,-1.19516 6.19968,-0.0401 6.73883,0.1834 9.21469,3.82031 1.27425,1.87181 1.40201,2.31979 1.20318,4.21894 -0.54734,5.22822 -5.41589,13.43409 -11.74747,19.8002 -4.56336,4.58825 -7.57973,6.91756 -12.04376,9.30049 -6.93879,3.70397 -15.80238,5.20576 -20.59013,3.48867 z m 15.12055,-8.00543 c 3.82192,-1.51773 5.65543,-2.83792 9.43248,-6.79165 4.97418,-5.20687 8.488,-11.36311 8.488,-14.87104 0,-5.77156 -10.33042,-3.8448 -17.45755,3.25606 -4.86578,4.84786 -9.73827,12.5683 -9.73906,15.43152 -2.3e-4,0.81103 0.47695,1.68841 1.4445,2.65595 1.8313,1.83131 3.81972,1.91234 7.83163,0.31916 z"
     id="path912"
     inkscape:connector-curvature="0" />
  <path
     style="fill:#ffffff;stroke:#666666;stroke-width:0.42495224;stroke-opacity:1"
     d="m 290.84167,238.5929 c 0.20724,-0.33944 6.5602,-9.54814 14.11767,-20.46378 l 13.74087,-19.8466 h 4.44563 4.44563 l -0.29571,9.70961 c -0.2081,6.833 -0.15877,9.79425 0.16652,9.99528 0.4875,0.3013 4.47269,-5.01786 10.71342,-14.29953 l 3.61209,-5.37217 3.6121,0.0258 c 6.3342,0.0452 6.34209,-0.62414 -0.10478,8.8915 -3.09764,4.57216 -9.26542,13.60217 -13.70617,20.06667 l -8.07409,11.75365 -4.63317,0.0123 -4.63316,0.0123 0.27963,-4.78072 c 0.82992,-14.1889 0.85936,-16.16582 0.23761,-15.95937 -0.32992,0.10954 -3.7264,4.72527 -7.54772,10.25715 l -6.94786,10.05798 -2.61357,0.004 c -1.43746,0.002 -3.64366,0.12738 -4.90266,0.27855 -1.93532,0.23238 -2.23085,0.17947 -1.91228,-0.34232 z"
     id="path914"
     inkscape:connector-curvature="0" />
  <path
     style="fill:#ffffff;stroke:#666666;stroke-width:0.15024331;stroke-opacity:1"
     d="m 350.34815,199.14701 c -0.0579,-0.60755 0.0388,-0.70186 0.52745,-0.51433 0.19329,0.0742 0.18211,0.16067 -0.0777,0.60097 -0.16691,0.28288 -0.32349,0.51433 -0.34797,0.51433 -0.0245,0 -0.0703,-0.27044 -0.10181,-0.60097 z"
     id="path916"
     inkscape:connector-curvature="0" />
  <path
     style="fill:#ffffff;stroke:#666666;stroke-width:0.15024331;stroke-opacity:1"
     d="m 350.79646,198.59364 c 0.10846,-0.0434 0.23804,-0.0381 0.28797,0.0119 0.0499,0.0499 -0.0388,0.0854 -0.1972,0.0789 -0.17502,-0.007 -0.21062,-0.0428 -0.0908,-0.0908 z"
     id="path918"
     inkscape:connector-curvature="0" />
  <path
     style="fill:#ffffff;stroke:#666666;stroke-width:0.15024331;stroke-opacity:1"
     d="m 354.43047,238.98819 c 0,-0.07 0.81132,-2.4793 1.80292,-5.35411 0.99161,-2.87481 1.80292,-5.28614 1.80292,-5.35852 0,-0.0724 -1.74094,-0.1306 -3.86876,-0.12937 -6.16101,0.004 -6.2437,0.0399 -12.28414,5.40654 -4.45532,3.95831 -5.76168,4.86258 -7.58554,5.25074 -0.54415,0.11581 -2.11391,0.15999 -4.59679,0.12938 l -3.77046,-0.0465 7.30117,-7.00795 c 12.21756,-11.72691 19.51809,-18.64961 26.45991,-25.09051 6.5652,-6.09146 8.17894,-7.3955 10.01796,-8.09534 0.8293,-0.31558 1.00797,-0.32658 3.65147,-0.22475 1.52872,0.0589 3.12202,0.15128 3.54065,0.20533 l 0.76115,0.0983 -6.02927,20.1326 -6.02928,20.13261 -5.58695,0.0394 c -3.07283,0.0217 -5.58696,-0.0178 -5.58696,-0.0878 z m 5.71497,-19.14517 c 0.84884,-0.42804 1.25685,-1.15026 1.64716,-2.9156 0.44584,-2.01653 0.37349,-2.43172 -0.39034,-2.24001 -0.40174,0.10083 -5.6196,5.08855 -5.6196,5.37174 0,0.0671 0.83079,0.12192 1.84621,0.12192 1.61579,0 1.92987,-0.0422 2.51657,-0.33805 z"
     id="path920"
     inkscape:connector-curvature="0" />
  <path
     style="fill:#ffffff;stroke:#666666;stroke-width:0.42495224;stroke-opacity:1"
     d="m 377.35328,239.21628 c -1.49424,-0.42152 -2.68392,-1.43041 -3.22386,-2.73396 -0.66808,-1.61287 0.0397,-5.17792 1.44084,-7.25701 1.12929,-1.67575 3.62115,-2.3103 7.27818,-1.85338 l 2.30627,0.28814 0.12748,2.20308 c 0.11915,2.05928 0.20491,2.21196 1.3139,2.33926 1.62718,0.18677 4.23771,-1.43538 7.2817,-4.52476 2.98637,-3.03089 4.48775,-5.3686 4.49074,-6.99224 0.003,-1.56763 -0.70792,-1.76717 -4.13781,-1.1616 -2.88013,0.5085 -12.56118,1.6626 -12.74205,1.51901 -0.053,-0.0421 4.24961,-5.17509 9.56142,-11.40663 l 9.65786,-11.33008 8.49904,0.007 c 7.79897,0.006 11.74644,0.31325 12.39766,0.96448 0.51878,0.51877 -0.90732,2.95839 -3.00571,5.14186 l -2.16776,2.25566 -6.28656,0.25415 c -7.00283,0.28311 -10.0741,1.12983 -10.0741,2.77733 0,0.69235 0.37004,0.89441 2.01852,1.10223 5.49466,0.69271 7.75829,2.2684 7.75123,5.39553 -0.008,3.65266 -3.43071,8.93622 -9.49053,14.65138 -6.13463,5.78571 -11.43263,8.23131 -18.33969,8.46577 -2.10352,0.0714 -4.19906,0.0242 -4.65677,-0.10493 z"
     id="path922"
     inkscape:connector-curvature="0" />
</svg>
